<svg id="Слой_1" data-name="Слой 1" xmlns="http://www.w3.org/2000/svg" viewBox="0 0 272.22 239.02"><defs><style>.cls-1{fill:#fff;}</style></defs><title>logo</title><path class="cls-1" d="M128.06,149.27l1.48-9.53h1.23c8.9-.06,17.82-3.51,19.71-15.72s-5.91-15.6-14.85-15.66H120.37L114,149.27Zm3.21-21.68,1.07-6.9H134c2.31,0,3.17,1.46,2.87,3.39a3.85,3.85,0,0,1-3.94,3.51Z" transform="translate(-114.02 -107.14)"/><path class="cls-1" d="M242.43,134.49l4.05-26.12H232.4l-4.06,26.18c-1.6,10.64,5.81,15.54,14.19,15.54s17.27-4.91,19-15.54l4.06-26.18h-14l-4.05,26.12a3,3,0,0,1-3,2.57A2.07,2.07,0,0,1,242.43,134.49Z" transform="translate(-114.02 -107.14)"/><path class="cls-1" d="M376.14,121c1.25-9.41-5.25-13.91-14.55-13.91-8.89,0-17.52,4.91-18.82,13.27-1.69,10.87,6.61,12.39,14.36,13.15,2.53.29,3.3.94,3.09,2.28-.24,1.52-1.64,2-3.19,2s-3.11-.53-2.8-2.51h-14c-1.55,10.34,5.63,15.08,14.63,15.08,8.07,0,17.77-3.21,19.45-14,1.72-11.1-8.2-12.1-15.65-12.8-1.22-.12-2.09-.76-1.88-2.16.26-1.69,1.95-2.28,3.18-2.28,1.39,0,2.68.64,2.53,1.93Z" transform="translate(-114.02 -107.14)"/><path class="cls-1" d="M120.37,173.76,114,214.66h14l2.21-14.26h6.43l-2.21,14.26h14l6.35-40.91h-14l-2.13,13.73h-6.43l2.13-13.73Z" transform="translate(-114.02 -107.14)"/><path class="cls-1" d="M269.93,173.76H255.12l-2.9,4.44-5.38,8.18,2-12.62h-14l-6.35,40.91h14l1.83-11.8,5.11,11.8h15.89l.08-.53L255.79,194l14-19.64Z" transform="translate(-114.02 -107.14)"/><path class="cls-1" d="M371.45,214.66H386l.24-1.58-7.71-39.8H362.65l-20.05,39.8-.24,1.58H356.9l2.28-4.73h11.41Zm-3.33-25.6.56,10.29h-4.27Z" transform="translate(-114.02 -107.14)"/><path d="M151.77,251.83c1.25-9.41-5.25-13.91-14.55-13.91-8.89,0-17.52,4.91-18.82,13.27-1.69,10.87,6.61,12.39,14.36,13.15,2.53.29,3.3.94,3.09,2.28-.24,1.52-1.64,2-3.19,2s-3.11-.53-2.8-2.51h-14c-1.55,10.34,5.63,15.08,14.63,15.08,8.07,0,17.77-3.21,19.45-14,1.72-11.1-8.2-12.1-15.65-12.8-1.22-.12-2.09-.76-1.88-2.16.26-1.69,1.95-2.28,3.18-2.28,1.39,0,2.68.64,2.53,1.93Z" transform="translate(-114.02 -107.14)"/><path d="M229.37,259.66c-4.19,27.7,31.56,28.23,37.68,2.34H253.69c-2.73,7-11.67,6.31-10.38-2.34s10.35-9.41,11.09-2.57h13.42C269.53,231.14,233.78,231.9,229.37,259.66Z" transform="translate(-114.02 -107.14)"/><path d="M349.72,239.15l-6.35,40.91h14l2.21-14.26h6.43l-2.21,14.26h14l6.35-40.91h-14l-2.13,13.73h-6.43l2.13-13.73Z" transform="translate(-114.02 -107.14)"/><path d="M117,324.88c-4.32,28.52,34.49,28.23,39,0C160.26,296.3,121.5,296.24,117,324.88Zm13.89-.06c1.53-9.53,12.48-9.53,11.05,0S129.43,334.29,130.85,324.82Z" transform="translate(-114.02 -107.14)"/><path d="M235.21,324.88c-4.32,28.52,34.49,28.23,39,0C278.51,296.3,239.75,296.24,235.21,324.88Zm13.89-.06c1.53-9.53,12.48-9.53,11.05,0S247.68,334.29,249.1,324.82Z" transform="translate(-114.02 -107.14)"/><path d="M356.51,304.54l-6.35,40.91h27.09l2-13.09H366.23l4.31-27.82Z" transform="translate(-114.02 -107.14)"/></svg>