<svg xmlns="http://www.w3.org/2000/svg" width="80" height="28" viewBox="0 0 80 28">
  <metadata><?xpacket begin="﻿" id="W5M0MpCehiHzreSzNTczkc9d"?>
<x:xmpmeta xmlns:x="adobe:ns:meta/" x:xmptk="Adobe XMP Core 5.6-c138 79.159824, 2016/09/14-01:09:01        ">
   <rdf:RDF xmlns:rdf="http://www.w3.org/1999/02/22-rdf-syntax-ns#">
      <rdf:Description rdf:about=""/>
   </rdf:RDF>
</x:xmpmeta>
                                                                                                    
                                                                                                    
                                                                                                    
                                                                                                    
                                                                                                    
                                                                                                    
                                                                                                    
                                                                                                    
                                                                                                    
                                                                                                    
                                                                                                    
                                                                                                    
                                                                                                    
                                                                                                    
                                                                                                    
                                                                                                    
                                                                                                    
                                                                                                    
                                                                                                    
                                                                                                    
                           
<?xpacket end="w"?></metadata>
<defs>
    <style>
      .cls-1 {
        fill: #171718;
        fill-rule: evenodd;
      }
    </style>
  </defs>
  <path id="lako_logo" class="cls-1" d="M1957.5,8779.82a10.214,10.214,0,0,0,10.15,0,10.1,10.1,0,0,0,3.7-3.7,9.931,9.931,0,0,0,1.37-5.11,10.073,10.073,0,0,0-1.37-5.12,10.253,10.253,0,0,0-3.7-3.7,10.149,10.149,0,0,0-10.15,0,10.308,10.308,0,0,0-3.72,3.7,10.164,10.164,0,0,0-1.36,5.12,10.02,10.02,0,0,0,1.36,5.11A10.308,10.308,0,0,0,1957.5,8779.82Zm0.36-11.6a5.77,5.77,0,0,1,1.99-2.14,4.953,4.953,0,0,1,2.72-.81,5.137,5.137,0,0,1,2.73.81,5.8,5.8,0,0,1,1.97,2.14,5.716,5.716,0,0,1,0,5.59,6.051,6.051,0,0,1-1.99,2.15,5.007,5.007,0,0,1-5.43,0,6.215,6.215,0,0,1-1.98-2.15,5.643,5.643,0,0,1-.74-2.8A5.7,5.7,0,0,1,1957.86,8768.22Zm-24.26-11.19V8757H1897v27.99h34.88V8785H1977v-27.97h-43.4Zm-8.65,23.75-5.77-10.63-5.79,10.63h-12.6v-19.42l4.71-.01v15h5.43l5.81-10.68,2.44-4.46,2.43,4.46,8.2,15.11h-4.86Zm50.29,2.44h-41.6v-24.41h41.6v24.41Zm-39.04-2.5h5.09l5.62-9.27v9.27h4.52v-19.43h-4.52V8770l-5.64-8.71h-5.11l6.12,9.41Z" transform="translate(-1897 -8757)"/>
</svg>
