<svg xmlns="http://www.w3.org/2000/svg" width="1920" height="1112" viewBox="0 0 1920 1112">
  <metadata><?xpacket begin="﻿" id="W5M0MpCehiHzreSzNTczkc9d"?>
<x:xmpmeta xmlns:x="adobe:ns:meta/" x:xmptk="Adobe XMP Core 5.6-c138 79.159824, 2016/09/14-01:09:01        ">
   <rdf:RDF xmlns:rdf="http://www.w3.org/1999/02/22-rdf-syntax-ns#">
      <rdf:Description rdf:about=""/>
   </rdf:RDF>
</x:xmpmeta>
                                                                                                    
                                                                                                    
                                                                                                    
                                                                                                    
                                                                                                    
                                                                                                    
                                                                                                    
                                                                                                    
                                                                                                    
                                                                                                    
                                                                                                    
                                                                                                    
                                                                                                    
                                                                                                    
                                                                                                    
                                                                                                    
                                                                                                    
                                                                                                    
                                                                                                    
                                                                                                    
                           
<?xpacket end="w"?></metadata>
<defs>
    <style>
      .cls-1 {
        fill-rule: evenodd;
      }
    </style>
  </defs>
  <path id="grid" class="cls-1" d="M711.5,1366l-4.556-.19,0.017-.47-0.017.47-51.254-2.22,0.493,1.8-0.821.28-0.576-2.11-55.6-.91,0.771,2.74-0.821.28-0.847-3.02-60.284,1.94,0.229,0.79-0.815.29-0.3-1.03L522.984,1366l-0.073-.94,14.476-1.39,0.036,0.47-0.013-.48,61.181-1.96,0.013,0.47,0.007-.47,56.5,0.92-0.007.47,0.017-.47,51.853,2.25h0l4.556,0.19Zm107.568,0-0.066-.94,20.085-1.69,39.033-8.13,38.474-13.66,39.216-19.57,41.221-25.35,44.313-30.48,0.23,0.4-0.23-.41,47.81-32.63,0.23,0.41-0.21-.42,51.05-31.62,0.2,0.42-0.19-.43,54.13-29.58,0.19,0.42-0.17-.43,56.97-26.74,0.17,0.43-0.14-.44,59.54-23.26,0.15,0.44-0.12-.45,61.84-19.28,0.12,0.45-0.09-.46,63.85-14.91,0.09,0.46-0.06-.46,65.58-10.2,0.06,0.46-0.03-.47,67.03-5.17,0.03,0.47v-0.47l68.17,0.15v0.47l0.04-.47,68.63,5.78,19.62-71.92-72.09-3.98,0.04-.94,72.64,4.01-0.02.47,0.05-.47,73.08,10.19-0.05.47,0.08-.46,72.96,16.81-0.09.45,0.13-.45,72.1,23.92-0.12.45,0.16-.44,70.41,31.47-0.17.43,0.2-.42,68.91,38.62-0.19.42,0.22-.4,67.43,45.65-0.23.4,0.26-.38,65.76,52.78-0.25.39,0.28-.36,4.54,4.27-0.55.72-4.18-3.93-49.74,82.65,51.53,56.13-0.6.68-51.42-56.01-33.66,55.93-0.72-.52,33.74-56.06-58.83-54.11-43.4,80.38,28.19,29.71-0.59.68-28.04-29.56-15.52,29.46-0.74-.48,15.6-29.61-56.32-48.43-36.79,77.64,0.3,0.28-0.56.71-0.2-.19-0.69-.37,0.07-.16-55.8-41.66-17.04,42.22-0.79-.38,17.09-42.33-59.42-33.4-26.97,73.7,3.01,1.8-0.41.83-2.91-1.74-0.48,1.49-0.81-.32,0.52-1.59-57.05-27.95-8.57,29.84-0.82-.28,8.59-29.92-57.06-22.67-12.97,52.85-0.83-.25,12.99-52.89-56.85-17.66-13.07,64.76,14.86,5.47-0.27.9-14.75-5.44-0.77,5.07-0.84-.16,0.78-5.18-53.08-15.37-2.28,20.68-0.85-.11,2.28-20.79-52.63-11.19-2.18,32.07-0.85-.07,2.18-32.15-52.11-7.15-0.97,39.35-0.85-.02,0.96-39.42-51.52-3.21,0.85,42.63-0.86.02-0.84-42.68-50.84.62,2.73,42.01-0.85.07-2.74-42.04-50.07,4.38,4.17,37.57-0.85.11-4.18-37.57-49.2,8.06,4.63,29.38-0.85.16-4.62-29.37-48.23,11.68,3.57,17.51-0.84.2-3.56-17.47-47.11,15.24,0.5,2-0.83.25-0.48-1.95-5.55,2.27-0.29-.88,5.61-2.3-8.83-34.01-46.64,21.84,4.57,14.76-0.8.3-4.55-14.66-27.04,14.93-0.39-.84,27.16-14.99-9.9-33.27-45.35,27.39,7.17,21.12-0.8.34-7.13-20.99-33.44,21.23-0.43-.82,33.58-21.32-10.59-34.88-43.06,28.66,9.03,27.79-0.81.32-8.97-27.63-40.31,24.45,0.937,2.86-0.808.32-0.9-2.76-5.982,3.03-0.358-.86,6.063-3.07-11.165-38.95-38.471,19.2,6.573,23.11-0.815.28-6.559-23.05-37.709,13.39,2.609,9.38-0.821.28-2.619-9.43-38.239,7.96,0.324,1.19-0.821.27-0.36-1.32Zm1094.246-43.37,55.83,41.68,36.77-77.61-59.71-40.74Zm-1074.171,41.2h0Zm986.141-.31h0Zm-649.28-.44h0Zm591.96-28.15,57.08,27.96,26.97-73.68-60.42-26.97Zm-600.51-6.5,8.84,34.06,47.15-15.25-7.69-37.5Zm-200.026,33.86h0Zm-10.914-39.64,11.165,38.95,40.305-24.45-10.989-39.39Zm628.64,21.31,53.12,15.38,13.07-64.71-56.46-12.88ZM878.222,1355.7h0Zm231.608-39.29,9.91,33.31,46.68-21.86-8.98-36.57Zm114.12,31.15h0Zm-7.39-38.1,7.71,37.54,48.27-11.69-6.18-41.19Zm315.07,23.09,52.68,11.2,9.72-62.16-55.92-8.32Zm-478.81-24.12,10.6,34.9,45.38-27.4-9.91-37.41Zm-44.33,28.95h0Zm-10.737-40.11,10.987,39.39L1051.8,1308l-10.49-40.69Zm275.277,38.4h0Zm494.39-.49h0Zm-500.22-41.29,6.18,41.25,49.26-8.07-4.28-44.99Zm739.83-7.49,56.35,48.46,43.37-80.34-61.41-46.93Zm-296.96,25.49,57.09,22.69,23.62-72.66-60.71-21.1Zm-231.44,13.35,52.15,7.16,6.47-59.22-55.23-3.95Zm-320.4-34.34,8.99,36.62,48.34-18.71-7.6-40.3Zm160.97-8.98,4.29,45.04,50.12-4.38-2.03-48.76Zm107.01,40.02,51.56,3.22,3.4-55.96-54.42.23Zm-53.77-48.23,2.03,48.83,50.88-.62,0.55-52.45Zm480.68,15.02,59.45,33.42,32.88-76.64-62.69-32.85Zm-743.81,27.44h0Zm-9.65-38.13,9.92,37.46,47.64-25.15-8.75-40.63Zm552.71,15.9,56.89,17.66,19.98-71.03-60.63-15.54Zm-443.6-25.77,7.61,40.36,49.85-15.35-5.78-44.26Zm899.11-13.89,58.87,54.14,49.71-82.6-65.05-52.22Zm-1065.81,12.51,10.5,40.71,46.09-29.93-9.56-42.88Zm-44.824,30.27v0Zm597.784-16.24,56.51,12.89,16.22-68.86-60.25-10.3Zm-328.32,12.7h0Zm-5.43-44.88,5.79,44.31,51.21-11.81-3.54-48.29Zm-103.56,41.98h0Zm-8.46-41.33,8.76,40.68,49.77-22.41-7.12-44.25Zm703.31,39.66h0Zm-60.69-27.6,60.46,26.99,29.63-76.05-64.01-25.93Zm154.69-16.25,59.74,40.77,38.3-78.79-63.87-39.59Zm-352.04,36.09h0Zm-278.95-48.57,3.55,48.36,52.42-8.11-0.91-52.29Zm222.64,39.72,55.97,8.32,12.46-66.22-59.62-5.35Zm-448.35-38.16,9.57,42.92,48.84-28.33-8.16-45.71Zm282.12,39.1h0Zm-0.5-52.86,0.92,52.35,53.51-4.25,2.05-56.16Zm110.6,47.87,55.28,3.95,8.79-63.18-58.76-.64Zm-53.26-56.02-2.05,56.22,54.46-.23,5.3-59.81Zm-227.35,10.66,7.13,44.3,51.73-19.27-5.05-48.07Zm528.85,16.99,60.75,21.11,26.06-74.96-64.55-19.53Zm315.41-33.17,61.45,46.95,43.51-80.62-66.68-45.15Zm-904.83-4.16,8.17,45.75,51.44-25.99-6.31-48.9Zm119.89,45.7h0Zm-4.68-48.72,5.05,48.12,53.51-15.8-2.56-51.93Zm689.9,45.71h0Zm-62.92-33.49,62.72,32.86,34.16-77.58-66.11-32.1Zm-214.27,12.33,60.68,15.55,22.24-73.34-64.59-13.52Zm-355.87-44.43,2.56,51.98,55.11-12.05,0.3-55.73Zm355.33,44.77h0Zm-60.6-10.84,60.3,10.31,18.31-71.26-64.2-7.87Zm-406.7,9.01h0Zm-5.97-49.6,6.32,48.94,53.86-23.05-4.06-52.23Zm176.76-9.34-0.29,55.78,56.52-8.06,3.47-59.36Zm175.39,44.47,59.67,5.35,14.4-68.78-63.48-2.55Zm271.1-22.68,64.04,25.94,30.75-76.78-67.66-24.83Zm-385.92-33.57-3.48,59.41,57.76-3.82,6.92-62.78Zm55.15,55.57,58.81,0.63,10.58-65.93-62.47,2.46Zm493.61-40.84,63.9,39.61,38.26-78.78-68.13-38.18Zm-729.14-20.32,4.06,52.28,56.05-19.62-1.42-55.57Zm500.89,19.33,64.59,19.54,27.12-75.63-68.4-18.03Zm-440.35,13.67h0Zm-1.01-56.22,1.43,55.62,58.01-15.8,1.52-58.83Zm602.71,11.01,66.14,32.11,34.01-77.32-69.59-31.1ZM1687.4,1151.9l64.62,13.53,23.3-74.08-68.5-11.68Zm-314.08-48.05-1.52,58.87,59.74-11.64,4.74-61.93Zm248.98,40.02,64.24,7.88,19.42-72.18-68.08-5.74Zm-190.36,7.61h0Zm5.22-62.51-4.74,61.98,61.24-7.2,8.18-64.84Zm56.88,55.21h0Zm63.88-2.94,63.52,2.56,15.56-70-67.27-.15Zm-55.2-62.44-8.19,64.89,62.51-2.46,11.81-67.54Zm342.99,30.13,67.7,24.84,30.55-76.28-71.27-23.64Zm-69.26-18.3,68.44,18.04,26.96-75.05-72.09-16.6Zm-0.56.34h0Zm-68.82-12.21,68.53,11.68,23.3-73.57-72.2-10.07Zm-0.55.38h0ZM470.031,1365.67l-11.072-39.96-68.352,12.34,7.466,27.34-0.821.28-7.49-27.44-71.236,19.02,2.155,8.15-0.82.26-2.16-8.16-18.13,6.51-0.265-.9,18.173-6.52-9.561-43.22-8.347,3.01-0.265-.9,8.426-3.04-7.708-43.38-0.45.17-0.271-.9,0.913-.33,0.135,0.45-0.105-.46,69.724-19.89,0.1,0.46L370,1248.1l67.034-14.06,0.08,0.46-0.057-.47,63.539-9.19,0.056,0.47-0.037-.47,59.559-5.38,0.036,0.47-0.019-.47,55.363-2.76,0.02,0.47-0.01-.47,51.2-1.42h0l47.344-1.49,44.023-2.97,41.54-5.86,40.143-10,40.007-15.11,41.258-20.84,43.884-26.73,47.77-32.31h0l52.25-35.58,0.22,0.4-0.21-.41,56.5-35.69,0.22,0.41-0.2-.42L1182,994.449l0.2,0.421-0.18-.431,64.1-31.6,0.18,0.432-0.16-.443,67.3-28.121,0.15,0.441-0.13-.45,70.09-24.044,0.12,0.451-0.1-.458,72.22-19.457,6.89-65.67,0.43,0.055-0.07-.465,76.79-14.828,0.08,0.465-0.05-.469,78.59-9.887,0.05,0.468-0.02-.469,80.09-4.684,0.02,0.468V795.7l81.25,0.811-0.01.473,0.03-.472,81.98,6.661-0.03.471,0.06-.467,82.15,12.941-0.06.467,0.09-.462,81.59,19.742-0.09.461,0.13-.453,80.34,26.906-0.12.453,0.14-.442,81.38,32.584-0.15.443,0.17-.436,34.32,15.874-0.33.872-33.94-15.7-30.97,74.582,65.26,34.393-0.37.85-65.26-34.391-34.43,76.451,72.01,43.07,27.49-54.74,0.75,0.46-27.5,54.76,27.35,19.16-0.46.8-27.31-19.13-42.4,80.45-0.74-.47,42.4-80.46-71.97-43.06-37.1,78.33-0.77-.44,37.1-78.31-72.41-36.48-32.83,76.59-0.77-.4,32.81-76.55-73.05-29.863-29.38,75.343-0.79-.38,29.35-75.248L1898.81,959.4l-25.97,74.054-0.81-.34,25.93-73.921-75.52-15.269-22.56,72.71-0.81-.31,22.51-72.53-75.58-8.7-19.19,71.319-0.82-.27,19.13-71.108-75.05-2.565-15.89,69.923-0.42-.12,0.42,0.12-16.22,71.06-0.83-.23,16.08-70.46-70.85,1.77-12.57,68.74-0.84-.18,12.53-68.49-69.58,7.17-9.13,66.66-0.85-.15,9.09-66.37-68,12.26-5.82,64.43-0.86-.09,5.8-64.14-66.1,17.05-2.7,62.06-0.85-.04,2.67-61.75-63.9,21.46,0.24,59.59-0.85.01-0.25-59.27-61.37,25.46,2.92,57.04-0.85.05-2.91-56.69-58.53,28.89,5.33,54.46-0.86.1-5.29-54.11-55.35,31.59,7.37,51.98-0.85.15-7.32-51.64-51.89,33.32,9.01,49.77-0.84.19-8.95-49.44-48.26,33.78,10.23,48.09-0.83.21-10.16-47.77-44.372,30.97,11.042,47.07-0.828.23-10.983-46.8-40.973,25.37,11.535,46.55-0.827.25-11.49-46.38-38.762,19.29,11.824,46.44-0.827.25-11.8-46.35-37.891,13.24,12,46.53-0.822.26-12.006-46.56L827.424,1317l12.125,46.71-0.821.26-12.164-46.85-40.15,3.2,11.79,45.08-0.82.26-11.851-45.29-43.026-.03,11.919,45.06-0.82.26-12-45.34-46.745-1.74,12.5,46.63-0.821.27-12.585-46.93-51.042-1.87,12.6,46.28-0.821.27-12.675-46.58-55.628-.42,12.625,45.8-0.822.28-12.7-46.07-60.227,2.5L537.834,1364l-0.821.27-12.625-45.47-64.564,6.8,11.028,39.79ZM308.742,1313.1l9.562,43.23,71.227-19-10.48-43.56Zm71.147-19.53,10.482,43.56,68.346-12.33-11.294-44.25Zm68.392-13.15,11.294,44.25,64.565-6.79-11.977-45.21Zm293.974,38.97,43.033,0.03-13.121-51.03-43.106.97Zm30.786-51.06,13.132,51.07,40.159-3.2-12.92-51.88Zm-78.431,49.3,46.748,1.74-13.185-50-46.688-.6Zm-181.572-45.04,11.976,45.22,60.227-2.51-12.512-46.35Zm129.619,43.13,51.049,1.87-13.118-48.83-50.824-.64Zm184.224,0.91h0Zm-184.545-.45h0Zm171.931-52,12.922,51.9,38.388-7.73L853,1255.82Zm-228.136,51.1,55.628,0.43-12.889-47.6-55.255.81Zm-285.282-46.49,7.71,43.39,70.287-19.33-9.088-43.71Zm565.261,39.94h0Zm-12.284-53.15,12.582,52.54,37.9-13.24-12.1-53.04Zm39.193-14.08,12.092,53.03,38.768-19.28-11.436-53.47Zm-522.428,7.43,9.093,43.73,67.517-13.02L436.8,1235.05Zm67.055-14.03,10.406,44.6,63.877-7.76-11.6-45.9Zm495.585-13.55,11.433,53.45,40.974-25.37-10.563-53.92Zm-420.756,50.8h0ZM501.2,1225.74l11.6,45.92,59.684-3.64-12.589-47.59Zm213.48-11.04,14.135,53.72,43.113-.97-14.082-55.66Zm-33.451,53.12,46.692,0.6L713.8,1214.75l-46.461,1.45Zm-120.461-47.45,12.6,47.61,55.251-.81-13.36-49.51Zm211.72,47.54h0Zm-142.98-.74,50.824,0.64-13.877-51.58-50.317,1.4Zm129.206-55.48,14.091,55.72,40.381-4.02-13.76-57.44Zm55.015,52.12h0Zm-13.459-58.03,13.77,57.49,38.745-8.37-13.174-58.92Zm40.166-10.05,13.177,58.93,38.4-13.74-12.346-60.02Zm135.416-.73,10.56,53.91,44.377-30.98-9.43-54.52Zm-95.383-14.44,12.347,60,39.437-19.72-11.293-60.73Zm52.271,40.55h0Zm-10.986-61.44,11.287,60.71,41.852-25.84-10.033-61.12Zm109.515,58.49h0Zm-9.13-55.3,9.43,54.53,48.27-33.79-7.96-55.51Zm-263.972,48.43h0Zm81.759-15.87h0Zm125.722-62.5,10.029,61.09,45.522-31.61-8.57-61.26Zm107.021-5.37,7.96,55.53,51.92-33.32-6.16-56.9Zm-51.01,35.09h0Zm-8.24-62.03,8.57,61.24,49.75-34.78-6.88-61.49Zm113.78-8.25,6.16,56.92,55.38-31.61-4.05-58.47Zm-162.028,40.32,0,0.01Zm107.028-5.37h0Zm-6.54-62.27,6.88,61.5,53.75-34.71-4.95-61.95Zm119.86-6.3,4.05,58.5,58.56-28.92-1.68-60.11Zm1008.38,33.29h0Zm-1071.74-62.65,4.95,61.97,57.52-33.18-2.83-62.547Zm125.13-1.57,1.69,60.14,61.42-25.48,0.89-61.75Zm64.86-27.43-0.89,61.78,63.94-21.48,3.63-63.349Zm-129.51-5.212,2.83,62.562,60.96-30.54-0.55-63.2Zm865.88,16.232,72.44,36.49,34.4-76.4-76.57-34.5ZM1379.7,977.05l-3.62,63.39,66.14-17.06,6.5-64.9Zm-132.84,50.44h0Zm-0.13-63.894,0.55,63.2,64.02-27.1,1.84-63.863Zm202.87-5.332-6.5,64.936,68.05-12.27,9.48-66.412Zm525.05,22.9,73.08,29.875,30.25-74.379-76.37-28.367Zm-453.14-36.8-9.48,66.442,69.63-7.18,12.57-67.878Zm73.61-8.7-12.58,67.908,70.88-1.77,15.77-69.33Zm-281.11-.173-1.84,63.883,66.72-23.062,4.31-64.556Zm585.1,23.007,74.73,22.367,26.94-72.84L1922.9,887.04Zm-515.03-47.022-4.32,64.577,69.06-18.582,6.86-65.287Zm695.04,24.638,76.61,34.514,30.96-74.547-80.55-32.254Zm-256.4,6.893,75.55,15.276,23.78-71.435-78.6-14.009Zm-366.15-51.04-6.87,65.31,71.07-13.754,9.48-66.073Zm64.57,51.962h0Zm9.99-66.631-9.48,66.1,72.76-8.622,12.15-66.938Zm291.03,66.075h0Zm-75.92-9.211,75.62,8.7,20.72-70.137-78.56-7.55Zm255.68-26.758,76.4,28.377,27-72.251-79.51-26.627Zm-394.47-39.655-12.16,66.961,74.11-3.192,14.92-67.892Zm62.83,63.772,75.09,2.568,17.77-68.954-77.94-1.533Zm252.91-45.382,77.9,21,23.89-70.472-80.73-19.533ZM1463.5,825.981L1456.67,891l73.71-14.524,9.01-65.144Zm380.2,45.956,78.64,14.016,21.05-68.977-81.28-12.8Zm-303.42-60.76-9.01,65.161,75.47-9.465,11.23-65.469Zm223.97,53.083,78.59,7.552,18.4-67.737-81.08-6.588ZM1607.1,867.3h0Zm11.76-65.988L1607.62,866.8l76.9-4.125,13.53-65.995Zm66.54,61.356,77.98,1.533,15.9-66.748-80.35-.8Zm-0.53.462h0Zm532.54,362.828-0.72-.51,4.54-7.73,0.72,0.52ZM299.928,1268.52l-0.914-6.54,0.848-.14,0.914,6.53Zm69.727-19.87-8.069-45.03-62.036,18.44-0.224-.91,62.1-18.47-7.4-46.45-54.476,16.93-0.232-.91,54.562-16.96-7.552-49.51-46.772,15.17-0.244-.9,47.234-15.33,0.123,0.45-0.106-.45,60.561-17.12,0.107,0.46-0.1-.46,57.532-14.37,0.1,0.46-0.086-.46,54.407-12.34,0.082,0.45-0.079-.45,51.377-11.1,48.619-10.68,46.3-11.08,44.619-12.31,43.7-14.29,43.686-16.921L842.065,964.5l46.408-23.249-10.009-77.313-48.477,23.549-0.344-.864,48.986-23.8,52.042-26.259,55.85-28.559,0.179,0.429L986.525,808l60.095-30.011,0.18,0.43-0.17-.435,64.14-29.8,0.16,0.434-0.15-.442,67.83-28.375,0.15,0.442-0.13-.448,71.1-26.091,0.13,0.445-0.11-.451,73.95-23.216,0.12,0.455-0.1-.46,76.47-19.939,0.1,0.459-0.08-.463,78.69-16.394,0.08,0.46-0.06-.464,80.66-12.642,0.06,0.464-0.04-.465,82.44-8.716,0.04,0.468-0.02-.468,84.03-4.592,0.02,0.471V608.19l85.42-.251v0.473l0.02-.471,86.57,4.362-0.02.471,0.04-.471,87.4,9.312-0.04.47,0.06-.467,87.76,14.672-0.06.467,0.09-.462,87.93,20.27-0.09.461,0.1-.46,60.4,16.112-0.2.916L2161.52,657.6l-13.16,65.737,73.35,22.655-0.23.909-73.34-22.649-18.4,67.785,84.29,29.78,7.16-23.25,0.81,0.3-7.16,23.253,6.9,2.784-0.29.888-6.91-2.787L2187.67,896l-0.79-.353,26.85-72.943-84.26-29.769L2106.3,863.4l-0.81-.321,23.16-70.41-82.37-24.655-20.32,68.465-0.82-.292,20.3-68.384-83.22-17.975-17.85,66.9-0.82-.268,17.82-66.775-83.52-11.626-15.63,65.715-0.83-.241,15.6-65.559-83.13-5.764-13.61,64.888-0.83-.212,13.56-64.7-82.25-.311-11.72,64.4-0.84-.187,11.68-64.186-81.02,4.808-9.9,64.235-0.85-.157,9.87-63.99-79.47,9.658-8.15,64.361-0.85-.13,8.12-64.089-77.65,14.271-6.41,64.762-0.43-.051,0.1,0.46-74.39,19.431-4.72,65.676-0.85-.073,4.69-65.333-71.38,23.6-2.54,65.836-0.86-.041,2.54-65.466-68.58,27.519-0.4,66.093-0.85-.008,0.39-65.7-65.37,30.864,1.73,66.424-0.85.026-1.73-66.01-61.73,33.388,3.82,66.81-0.85.06-3.8-66.384-57.67,34.748,5.82,67.246-0.85.1L1059,998.013l-53.32,34.537,7.7,67.76-0.85.12-7.66-67.36-48.737,31.48,9.467,68.07-0.848.14-9.417-67.72-44.748,26.53,11.105,67.77-0.841.17L909.786,1092l-41.951,21.35,12.562,66.84-0.84.19-12.53-66.67-40.444,16.33,13.761,65.27-0.834.22-13.748-65.21-40.225,11.84,14.621,63.15-0.828.23L784.7,1142.37l-41.222,8.2,15.105,60.59-0.828.26-15.128-60.71-43.258,5.62,15.164,57.8-0.821.27-15.21-57.97-46.123,4.24,14.807,54.94-0.821.27-14.857-55.13-49.579,4.1,14.052,52.19-0.821.27-14.105-52.38-53.37,5.17,12.933,49.7-0.821.26-12.979-49.86-57.271,7.38,11.515,47.61-0.827.25-11.546-47.73-61.028,10.65,9.867,46.04-0.834.21-9.877-46.08-64.4,14.86,8.075,45.08Zm-14.791-92.66,7.4,46.48,64.363-14.86-9.563-47.52ZM417.9,1139.9l9.569,47.54,61-10.65-11.585-49.28Zm59.833-12.56,11.592,49.32,57.254-7.38-13.33-51.67Zm69.4,42.34h0ZM534.1,1117.47l13.341,51.71,53.363-5.17-14.688-54.53Zm52.874-8.12,14.7,54.58,49.579-4.11-15.588-57.71Zm49.549-7.37,15.6,57.77,46.13-4.24-15.972-61.03Zm46.613-7.65,15.989,61.08,43.271-5.62-15.817-64.26Zm-335.979,11.2,7.56,49.53,62.157-15.89-9.966-50.53Zm380.263-20.2,15.83,64.32,41.238-8.2-15.134-67.2ZM770.184,1074l15.145,67.25,40.245-11.85L811.6,1059.79Zm-352.8,65.53h0Zm-9.641-51.11,9.972,50.56,58.953-12.39-12.215-52.34Zm404.668-28.94,13.978,69.63,40.465-16.33-12.437-71.33Zm-347.12,14.58,12.224,52.36,55.5-9.73-14.145-54.79Zm54.42-12.35,14.155,54.84,52-7.99-15.618-57.76Zm335.514-20.63,12.436,71.32,41.974-21.36-10.632-72.22ZM571.1,1050.61l15.631,57.82,48.692-7.23-16.542-61.08Zm48.622-10.68,16.558,61.14,45.772-7.5-16.856-64.53Zm46.308-11.11,16.873,64.59,43.46-8.8-16.542-67.87Zm233.783-10.42,10.629,72.19,44.765-26.54L946.521,991.8Zm-189.164-1.91,16.552,67.93,41.958-11.08-15.625-70.87Zm43.7-14.31,15.631,70.91,41.438-14.23-14.188-73.284Zm192.982-10.848,8.678,72.208,48.753-31.5-6.709-71.446ZM811.916,1059.18h0ZM798.04,985.239l14.19,73.3,42.03-18.04-12.35-74.915ZM570.55,1050.25h0Zm284.194-9.45h0Zm-12.026-75.594,12.346,74.914,43.8-22.27L888.6,942.216ZM998.869,960.1l6.711,71.42,53.33-34.546-4.75-70.246Zm-333.376,68.38h0Zm233.843-10.35h0ZM889.413,941.8l10.258,75.609,46.735-26.605-8.09-75.38ZM710.122,1016.17h0Zm43.719-14.3h0Zm301.139-75.631,4.75,70.225,57.7-34.763-2.79-68.994ZM939.131,914.98l8.086,75.344,50.744-30.751-5.983-74.189Zm176.349-22.729,2.78,68.984,61.76-33.4-0.87-67.768ZM992.8,884.924l5.977,74.152,55.311-33.384-3.99-72.437Zm-113.524-21.39,10.006,77.285,48.927-26.388-7.721-76.738Zm300.732-3.881,0.86,67.761,65.4-30.877,1.01-66.62ZM1050.93,852.8l3.99,72.409,59.68-33.545-2.13-70.549ZM931.31,837.277l7.719,76.7,52.87-29.608-5.576-75.221Zm316.83-7.723-1.01,66.618,68.61-27.529,2.83-65.6ZM1113.31,820.7l2.13,70.53,63.7-32.2-0.38-68.654ZM992.349,884.646h0Zm-5.2-75.918,5.573,75.183,57.317-31.682-3.64-73.092Zm332.29-6-2.83,65.6,71.4-23.607,4.61-64.756ZM878.808,863.247v0ZM1179.61,790l0.39,68.64,67.29-29.745,1.22-66.858Zm-132.37-11.27,3.64,73.06,61.56-31.694-1.92-70.768Zm346.25,0.989-4.6,64.759,73.82-19.284,6.35-64.128ZM930.847,836.981l0,0.011ZM1249.37,761.7l-1.21,66.85,70.45-26.522,2.7-65.245Zm-138-12.755,1.92,70.741,65.46-30.329-0.41-68.426Zm207.66,53.427h0Zm3.15-65.874-2.7,65.241,73.2-22.772,4.08-63.877Zm724.34,30.608,82.4,24.662,18.39-67.755-84.91-22.465Zm-867.34,22.564h0Zm0.01-69.082L1179.6,789l68.93-27.973,0.9-66.205Zm218.45-5.729-4.08,63.874,75.6-18.66,5.38-62.791Zm564.8,34.052,83.25,17.979,15.87-65.529-85.29-16.313Zm-713.49,12.441h0Zm1.34-66.836-0.9,66.19,71.96-24.926,2.02-64.206Zm225.13,2.585-5.39,62.789,77.69-14.274,6.65-62.023Zm402.63,40.028,83.54,11.629,13.83-63.839-85.27-10.441Zm-322.81-53.668-6.64,62.027,79.49-9.663,7.91-61.6Zm238.79,47.809,83.17,5.767,12.09-62.634-84.68-5.028Zm-157.15-57.124-7.91,61.606,81.04-4.81,9.2-61.545Zm-312.64-2.828-2.03,64.2,74.61-21.416,3.01-62.489Zm386.64,59.6,82.29,0.314,10.57-61.88-83.65.012Zm351.71-30.293,84.94,22.471,13.15-65.71-87.08-20.074ZM1400.7,651.4l-3.01,62.484,76.93-17.583,3.89-61.114Zm575.74,32.725,85.31,16.315,11.01-63.291-86.91-14.528Zm-497.06-49.1-3.89,61.109,78.97-13.514,4.71-60.1Zm496.57,49.484h0Zm-85.65-10.961,85.29,10.443,9.41-61.484-86.53-9.221ZM1560.04,622.4l-4.71,60.1,80.78-9.237,5.49-59.485Zm329.77,51.561h0Zm-85.06-5.521,84.69,5.028,8.17-60.248-85.7-4.318Zm-162.28-54.734-5.49,59.49,82.36-4.75,6.28-59.284Zm84.02-4.573-6.29,59.291,83.69-.014,7.15-59.524ZM346.252,1105.26l-8.837-54.4-37.851,12.74-0.252-.9,37.941-12.77-11.36-59.986-26.326,9.063-0.258-.9,26.392-9.085-15.681-67.47-10.456,3.588-0.252-.9,10.477-3.595-10.761-38.107,0.821-.281,10.757,38.107,53.755-18.344-21.714-75.375L299.564,841.2l-0.252-.9L342.8,825.6l51.764-17.881,49.917-17.744,48.665-17.862,48.023-18.2,47.967-18.7,48.486-19.323,49.539-20.014,51.113-20.729,0.148,0.443-0.145-.443,53.154-21.414,0.136,0.413-0.136-.413L847.049,631.7l0.142,0.428-0.139-.43,58.473-22.563,0.139,0.431-0.133-.433,61.675-22.97,0.135,0.446-0.129-.448,65.008-22.954,0.13,0.448-0.12-.452,68.07-22.1,0.12,0.452-0.11-.456,70.8-20.662,0.11,0.456-0.1-.461,73.2-18.817,0.09,0.46-0.08-.463,75.31-16.7,0.08,0.463-0.07-.464,77.21-14.391,0.07,0.466-0.06-.468,78.94-11.95,0.06,0.467-0.05-.469,80.55-9.411,0.05,0.47-0.03-.471,82.1-6.77,0.04,0.471-0.02-.471,83.62-4.027,0.02,0.47-0.01-.472,85.15-1.161,0.01,0.473,0.01-.473,86.68,1.851-0.01.474,0.02-.471,88.26,5.037-0.03.47,0.04-.47,89.91,8.417-0.04.471,0.05-.469,91.47,11.8-9.4-64.531,0.42-.075,0.05-.469,66.91,7.266-0.09.94-66.36-7.207,9.35,64.2,57.11,8.474-0.11.934-56.9-8.439,5.17,62.624,51.86,9.712-0.15.931-51.69-9.68-0.79,62.725,52.64,11.914-0.17.925-52.53-11.89-7.37,64.425-0.84-.117,7.36-64.489-88.83-17.49-5.61,61.816-0.86-.1,5.62-61.867-88.06-12.619-4.47,59.9-0.85-.077,4.46-59.924-87.28-7.93-3.72,58.613-0.86-.065,3.72-58.605-86.22-3.584-3.21,57.889-0.86-.058,3.21-57.846-84.94.471-2.84,57.68-0.85-.051,2.83-57.6-83.48,4.3-2.52,57.943-0.86-.045,2.51-57.832-81.9,7.929-2.19,58.659-0.86-.04,2.19-58.513-80.17,11.4-1.83,59.8-0.85-.032,1.81-59.618-78.29,14.714-1.35,61.325-0.86-.022,1.35-61.117L1325,607.733l-0.75,63.216-0.86-.011,0.74-62.978-73.88,20.774,0.04,65.425h-0.85L1249.39,629l-71.25,23.37,1.05,67.87-0.86.015-1.04-67.581-68.23,25.479,2.3,70.453-0.85.033-2.3-70.146-64.83,26.888,3.84,73.011-0.85.055-3.83-72.7-61.081,27.3,5.669,75.343-0.855.077-5.645-75.041L923.5,759.868l7.775,77.072-0.855.1-7.741-76.794L869.17,785.218l10.062,77.968-0.848.131L868.355,785.6l-50.5,23.365,12.383,78.007,12.424,77.879-0.842.164-12.333-77.3-45.947,20.957,14.429,76.188-0.84.194-14.4-76.032-44.583,18.665,16.115,74.078-0.835.22L737.332,928l-44.069,16.665,17.273,71.381-0.828.24-17.26-71.329-44.355,15.086,17.81,68.313-0.821.25-17.809-68.295-45.364,14.018,17.677,65.107-0.821.27-17.684-65.131-47,13.531,16.88,62.01-0.822.27-16.886-62.046L504.108,1002l15.475,59.22-0.821.26-15.485-59.25-51.662,14.4,13.565,56.94-0.827.24-13.566-56.95-54.423,15.77,11.288,55.32-0.835.21-11.28-55.29-57.294,17.72,8.851,54.5ZM326.717,989.667l11.361,59.993,57.264-17.71-13.476-60.535Zm69.137,42.613h0Zm-13.168-61.133,13.48,60.563,54.4-15.76L435.13,954.164ZM435.954,953.9l15.439,61.82,51.645-14.4-17.031-63.609Zm50.877-16.456,17.038,63.646,49.136-13.651-18.121-65.847ZM310.842,921.27l15.68,67.476L381.647,970.5l-17.042-67.581Zm224.86,0.045,18.134,65.891,47-13.532-18.611-68.33Zm47.337-16.26,18.621,68.373,45.377-14.022-18.452-70.862Zm-217.616-2.414,17.046,67.592L434.9,953.256l-18.277-68.213Zm263.973-14.4,18.463,70.9,44.367-15.091-17.658-73.233Zm-211.96-3.481,18.283,68.23,50.043-16.184-19.211-69.269ZM675.376,870.5l17.664,73.259,44.093-16.673-16.29-75.235Zm-208.011-3.25,19.218,69.291,48.049-15.85-19.72-70.627ZM737.64,927.389h0Zm-15.989-75.88,16.293,75.248L782.55,908.08,768.1,831.4Zm-205.924-1.747,19.723,70.651,46.526-15.976L562.269,832.3ZM783.043,908.38h0Zm-14.134-77.338,14.449,76.682,45.977-20.966-12.293-77.43Zm-205.832.946,19.717,72.162,45.553-16.514-19.164-73.652Zm-219.609-5.627,21.71,75.375,51.188-17.6-21.948-75.38Zm266.522-12.7,19.171,73.669L674.347,869.9l-18.092-75Zm-214.755-5.188,21.949,75.383,49.109-17.221L444.334,791.02Zm261.828-13.91,18.091,75.016,45.488-18.659-16.559-76.046Zm-211.914-3.838,21.962,75.62,47.546-17.186-21.651-76Zm276,60.493h0Zm-16.261-76.685,16.562,76.048,46.473-20.123-14.664-76.641ZM515.193,849.463h0Zm-21.376-76.6,21.654,76,46.55-17.464L541.029,754.97Zm48.023-18.2,20.992,76.429,46.112-18.013-19.951-76.8Zm212.226-1.185L768.73,830.1l48.159-21.723L804.347,731.7ZM589.8,735.954l19.949,76.8,46.285-18.772-18.565-77.026Zm215.355-4.608L817.7,808.008l50.526-23.378-10.337-76.092ZM638.28,716.632l18.562,77.014,47.036-19.7-16.873-77Zm220.427-8.446,10.333,76.066,53.54-24.979-8.2-74.849ZM687.816,696.619l16.87,76.989,48.389-20.724-14.969-76.659Zm-194.532,75.94v0Zm421.925-88.484,8.191,74.816,57.149-26.446-6.268-72.961Zm-373.9,70.282v0Zm212.262-1.179h0ZM738.918,675.9l14.966,76.639,50.3-21.785-12.94-75.936Zm236.194-16.753,6.264,72.927,61.1-27.315-4.65-70.578Zm-183.049-4.656L805,730.4l52.758-22.819-10.9-74.8Zm55.611-22.029,10.9,74.773,55.7-23.774-8.959-73.241Zm191,1.4,4.65,70.545,64.85-26.9-3.36-67.975ZM906.137,609.9l8.96,73.21,59.094-24.6-7.218-71.267Zm199.523-.675,3.35,67.948,68.26-25.49-2.4-65.367ZM967.805,586.942l7.214,71.235L1037.76,633.2l-5.79-68.919Zm207.915-.891,2.4,65.344,71.26-23.375-1.71-62.912ZM1032.81,564l5.78,68.888,66.16-24.333-4.71-66.382Zm215.71,0.876,1.71,62.89,73.9-20.779-1.28-60.707Zm-147.65-22.965,4.72,66.354,69.24-22.914-4-63.855Zm222.83,4.17,1.29,60.691,76.23-17.861-1.06-58.829Zm755.64,27.958,88.85,17.5,0.79-62.7-90.14-14.73Zm-678.32-44.123,1.05,58.818,78.31-14.715-1-57.321Zm-225.74,55.778h0Zm-3.61-64.431,4,63.829,71.96-20.947-3.61-61.483Zm907.25,53.172h0Zm-88.5-13.159,88.06,12.621-0.5-59.914-88.73-10.565Zm-510.18-44.707,0.99,57.313,80.18-11.4-1.03-56.222Zm-235.38-14.112,3.61,61.461,74.35-18.6-3.49-59.372Zm316.37,3.708,1.04,56.217,81.91-7.931-1.17-55.549ZM1990,561.69h0Zm-87.73-8.443,87.29,7.93-1.17-57.847-87.54-6.531Zm-258.4-54.407,1.16,55.547,83.5-4.3-1.32-55.34Zm171.31,50.768,86.23,3.584-1.42-56.44-86.24-2.772Zm-87.11-54.884,1.31,55.341,84.95-.471-1.43-55.625Zm86.7,55.339h0Zm-494.59-64.29,3.49,59.353,76.46-16-3.59-57.586Zm77.2-14.379,3.59,57.574,78.38-13.22-3.88-56.175Zm681.41,41.747,90.15,14.73-5.16-62.595-91.15-11.763Zm-602.47-53.683,3.88,56.165,80.13-10.31-4.3-55.166Zm512.88,43,88.72,10.564-6.17-59.611-89.03-8.336Zm-432.32-52.4,4.3,55.158,81.78-7.265-4.82-54.594Zm343.91,45.785,87.53,6.531-6.47-57.371-87.38-4.987ZM1639,443.307l4.82,54.59,83.33-4.091-5.38-54.485Zm174.69,49.726,86.23,2.773-6.32-55.822-85.82-1.833ZM1722.63,439.3l5.38,54.484,84.82-.753-5.91-54.88ZM342.524,826.21L315.9,743.145l-16.343,5.278-0.239-.9,16.283-5.26-16.564-47.486,0.8-.34,16.588,47.557,51.721-17.117-29.18-87.8L299.55,648.994l-0.224-.909,39.341-11.9L306.461,543.91l-6.923,1.833-0.2-.921,7.288-1.927,55.45-14.832h0l54.367-14.725,53.837-14.757L523.689,483.8l-22.723-88.135,0.41-.129-0.086-.463,113.926-25.959,0.085,0.461-0.085-.461,58.468-13.325,0.083,0.44-0.083-.44,60.069-13.6,0.086,0.462-0.086-.463L795.821,328.3l0.086,0.464-0.082-.464,64.428-14.173,0.083,0.464-0.083-.464,67.121-14.438,0.083,0.463-0.08-.463,69.379-14.16,0.079,0.463-0.073-.464,70.808-13.3,0.07,0.465-0.06-.467,72-12.385,0.07,0.466-0.06-.466,37.22-5.823,0.11,0.934-36.78,5.756,10.27,65.742,72.41-12.738-9.64-59.143,0.84-.167,9.65,59.169L1297.3,302.1l-8.27-47.529,0.84-.18,8.28,47.586,74.76-10.166-7-37.235,0.84-.19,7.01,37.315,75.88-8.848-5.78-28.268,0.84-.208,5.8,28.383,77.01-7.517-4.57-20.651,0.83-.222,4.61,20.795,78.26-6.178-3.42-14.385,0.82-.242,3.47,14.565,79.69-4.837-2.39-9.481,0.82-.252,2.45,9.688,81.39-3.489-1.57-5.942,0.82-.262,1.63,6.173,83.46-2.142-1.01-3.767,0.82-.266,1.08,4.016,86.11-.81-0.77-2.942,0.82-.262,0.84,3.2,89.57,0.494-0.84-3.44,0.83-.249,0.9,3.7,94.3,1.714-1.12-5.178,0.84-.218,1.16,5.415,94.26,2.577-0.02.946-94.04-2.574,14.79,70.651,79.29,5.408-0.05.942-79.05-5.391,12.59,67.262-0.43.095-0.03.471-92.43-8.621,10.34,61.338-0.84.17-10.38-61.58-89.19-5.917,10.5,58.9-0.84.182-10.54-59.131-87.01-3.258,10.14,57.171-0.84.182-10.18-57.376-85.13-.723,9.47,56.069-0.84.172-9.5-56.238-83.46,1.7,8.66,55.531-0.85.16-8.67-55.661-81.91,4.04,7.8,55.5-0.85.146-7.81-55.589-80.44,6.293,6.99,55.929-0.84.128-7-55.979-78.99,8.469,6.28,56.8-0.85.113-6.28-56.809-77.53,10.584,5.73,58.068-0.86.1L1390.78,413l-76,12.627,5.37,59.708-0.85.092-5.37-59.646-74.35,14.582,5.26,61.671-0.85.088-5.26-61.579-72.53,16.415,5.44,63.893-0.85.088-5.43-63.777-70.48,18.06,5.97,66.288-0.86.094-5.95-66.153-68.13,19.432,6.87,68.725-0.86.1-6.85-68.576-65.473,20.4,8.168,71.016-0.848.121L958.766,515.8,896.32,536.447l9.77,73.064-0.847.138-9.751-72.923-59.426,20.439,11.552,74.9-0.847.157-11.529-74.769-56.688,20.133L792,654.09l-0.841.179-13.423-76.387-54.284,19.744,15.389,77.867-0.834.2-15.373-77.769L670.4,617.213l17.324,79-0.835.222-17.306-78.918L619,636.308l19.178,79.907-0.828.241-19.164-79.848L568.795,654.9l20.9,80.628-0.822.259L567.984,655.2l-48.7,17.818,22.439,81.207-0.821.273-22.432-81.184-48.556,17.427,23.78,81.675-0.815.288-23.783-81.672L420.1,708.177l24.916,82.1-0.815.3-24.919-82.113-50.028,17.026L395.1,808.016l-0.808.308-25.856-82.561-51.715,17.114L343.332,825.9Zm-26.356-83.644h0ZM339.8,636.817l29.17,87.779,50.043-17.031-27.323-86.779Zm52.715-16.288,27.315,86.753,49-17.148-25.413-85.667Zm51.724-16.323,25.41,85.639,48.568-17.431-23.461-84.438Zm51.337-16.5,23.456,84.407,48.718-17.826-21.492-83.083Zm51.5-16.77,21.482,83.051,49.41-18.3-19.518-81.6ZM307.3,543.687L339.5,635.928,391.4,619.894,361.9,529.08Zm291.971,10.145,19.512,81.56,50.6-18.8L651.8,536.621ZM362.738,528.855l29.491,90.782,50.92-16.067-26.888-89.211Zm289.892,7.5L670.2,616.291,722.449,597l-15.688-78.219ZM417.1,514.132l26.878,89.176,50.53-16.235-24.416-87.468Zm290.488,4.382,15.68,78.185,54.3-19.752L763.684,500.6ZM470.922,499.378l24.4,87.428,50.7-16.506-22.1-85.588Zm293.586,0.963,13.877,76.313L835.1,556.513l-12.174-74.368Zm-239.753-15.86,22.091,85.55,51.387-16.846-19.958-83.592Zm310.827,72.356h0Zm-11.833-74.946,12.168,74.336,59.443-20.446-10.6-72.3Zm-225,71.617h0Zm-19.648-84.144,19.949,83.553L651.6,535.7l-17.982-81.494Zm73.011,66.661h0Zm233.479-72.8L896.187,535.5l62.463-20.649-9.159-70.189Zm-251.143-9.25,17.975,81.457,54.145-17.579-16.18-79.333ZM691.223,438.3l16.174,79.3,56.115-17.918-14.529-77.119Zm259.1,6.134,9.154,70.16,65.49-20.406-8.01-67.961ZM416.542,513.8h0Zm333.272-91.469,14.523,77.086,58.429-18.2-13.023-74.9ZM1017.79,426l8.01,67.933,68.15-19.436-7.27-65.672ZM501.913,395.9l22.607,87.675,53.539-14.892-20.376-85.475Zm308.662,10.2,13.019,74.866,61.028-18.422-11.641-72.687Zm276.945,2.531,7.27,65.649,70.48-18.06-6.92-63.487ZM558.525,383.014l20.365,85.437,54.529-15.162-18.435-83.156ZM885.112,462.88h0Zm-11.294-73.245,11.635,72.657,63.906-18.565L938.986,373.21Zm285.382,2.912,6.91,63.465,72.53-16.415-6.9-61.5ZM615.825,369.941l18.425,83.118L690.2,437.6l-16.757-80.792Zm324,3.062,10.37,70.489,66.647-18.211-9.36-68.346Zm292.767,4.939,6.9,61.476,74.34-14.58-7.18-59.784Zm-558.3-21.323,16.747,80.756,57.771-15.747-15.3-78.419Zm640.023,68.6h0Zm-306-68.481,9.37,68.32,68.88-17.178-8.76-66.224Zm299.19,8.173,7.18,59.769,75.99-12.624-7.72-58.4Zm-573.151-21.9,15.29,78.386,59.936-16.019-14-76.068Zm656.811,69.439h0Zm-7.36-58.916,7.72,58.39,77.52-10.584-8.47-57.382Zm-305.16-12.054,8.76,66.2,70.84-15.9-8.55-64.253Zm-268.562,64.25h0Zm-13.664-76.605,14,76.034,62.419-16.247L860,315.145Zm665.016,14.736,8.46,57.375,78.97-8.466-9.36-56.767Zm600.62,46.72,92.1,8.589-12.52-66.89-93.1-5.231Zm-521.7-54.652,9.37,56.759,80.42-6.289-10.37-56.572Zm-389.81-8.56,8.54,64.234,72.54-14.448-8.66-62.524Zm821.43,57.229,89.18,5.916-13.5-63.509-89.33-3.295Zm-1098.645,4.67h0Zm-12.489-74.314,12.827,73.744,65.18-16.429-11.731-71.571Zm769.814,71.877h0Zm-10.01-57.059L1631,386.351l81.88-4.041-11.39-56.84Zm263.44,51.527,86.99,3.256-13.64-60.87-86.54-1.332Zm-170.67,1.45h0Zm-11.05-57.322,11.39,56.842,83.45-1.7-12.38-57.613Zm95.71,55.132,85.12,0.723L1870,322.355l-84.31.595ZM1223.81,314.5l8.66,62.507,74.05-12.887-9.07-61.089Zm-295.857-13.97,11.728,71.544L1007.34,356l-10.853-69.459Zm379.067,63.982h0Zm-8.72-61.6,9.07,61.075,75.44-11.255-9.74-59.989ZM997.329,286.378l10.851,69.432,69.49-15.081-10.38-67.5Zm376.6,6.253,9.73,59.979,76.76-9.577-10.6-59.252Zm76.75-8.942,10.59,59.248,78.06-7.855-11.62-58.911Zm-382.55-10.608,10.38,67.472,71.05-13.952-10.27-65.76Zm460.44,3.015L1540.19,335l79.39-6.1-12.72-58.986Zm519.75,50,93.12,5.231-14.78-70.617L2032.39,259Zm-440.59-56.244,12.72,58.988,80.83-4.309-13.85-59.515Zm350.37,52.91,89.33,3.295-15.93-67.072-89.56-.495Zm-269.79-57.79,13.85,59.521,82.44-2.473-14.9-60.536Zm182.36,56.437,86.53,1.331-16.14-64.25-86.12.811ZM1770.59,261.46l14.89,60.546,84.3-.595-15.72-62.094ZM1223.32,314.1h0Zm304.73-38.434h0ZM1770.03,261h0ZM306.328,543.53l-7.288-20.052,0.8-.351,7.287,20.053Zm55.446-14.847-31.408-94.206-30.842,6.87-0.172-.927,30.713-6.839-31.027-91.108,0.8-.331,31.073,91.25,56.742-12.683-28.919-93.625-59.228,10.633-0.138-.93,59.085-10.612L336.16,254.634l0.809-.307,22.342,71.7,59.078-10.615L401.258,254.62l0.822-.28,17.164,60.915,58.3-10.511-12.9-50.134,0.821-.26L478.4,304.591l58.049-10.522-9.4-39.468,0.829-.242,9.419,39.555,58.337-10.635L589.2,254.593l0.834-.226,6.441,28.758L655.63,272.3l-3.788-17.71,0.835-.215,3.8,17.769,60.482-11.083-1.337-6.473,0.834-.21,1.351,6.528,37.686-6.889,0.139,0.93L718,261.827l16.26,80.723-0.834.2L717.148,261.98l-60.475,11.083,17.515,83.082-0.835.217-17.528-83.143-59.141,10.825,19.035,85.421-0.835.226L595.836,284.2l-58.323,10.633,20.895,87.7-0.827.241-20.916-87.787-58.032,10.518,23.154,89.9-0.411.131,0.086,0.46-55.956,12.668L470.789,498.9l-0.821.277-25.306-90.322-55.887,12.564,28.174,92.224-0.815.3-28.2-92.338-56.717,12.676,31.362,94.071Zm26.442-107.618h0Zm-28.623-94.137L388.5,420.519l55.907-12.567-25.759-91.631Zm85.364,81.382h0ZM419.5,316.165l25.751,91.6,55.585-12.583L477.782,305.66Zm176.656-32.5h0Zm199.333,45.2-14.4-74.283,0.841-.2,14.4,74.282Zm64.425-14.177-11.237-60.109,0.841-.19,11.237,60.108Zm67.121-14.442-8.211-45.67,0.841-.183,8.211,45.67Zm69.379-14.162-5.5-31.51,0.84-.18,5.5,31.511Zm70.805-13.3-3.17-18.207,0.85-.18,3.16,18.209Zm72.01-12.383-1.04-5.822,0.84-.183,1.04,5.823Z" transform="translate(-302 -254)"/>
</svg>
